<?xml version="1.0" encoding="UTF-8" standalone="no"?>
<!-- Created with Inkscape (http://www.inkscape.org/) -->

<svg
   xmlns:dc="http://purl.org/dc/elements/1.1/"
   xmlns:cc="http://creativecommons.org/ns#"
   xmlns:rdf="http://www.w3.org/1999/02/22-rdf-syntax-ns#"
   xmlns:svg="http://www.w3.org/2000/svg"
   xmlns="http://www.w3.org/2000/svg"
   xmlns:sodipodi="http://sodipodi.sourceforge.net/DTD/sodipodi-0.dtd"
   xmlns:inkscape="http://www.inkscape.org/namespaces/inkscape"
   width="744.09448819"
   height="1052.3622047"
   id="svg2"
   version="1.1"
   inkscape:version="0.47 r22583"
   sodipodi:docname="rss_framework.svg"
   inkscape:export-filename="/home/thomas/rss_framework.png"
   inkscape:export-xdpi="90"
   inkscape:export-ydpi="90">
  <sodipodi:namedview
     id="base"
     pagecolor="#ffffff"
     bordercolor="#666666"
     borderopacity="1.0"
     inkscape:pageopacity="0.0"
     inkscape:pageshadow="2"
     inkscape:zoom="1.28"
     inkscape:cx="250.11465"
     inkscape:cy="774.55332"
     inkscape:document-units="px"
     inkscape:current-layer="layer1"
     showgrid="true"
     inkscape:window-width="1920"
     inkscape:window-height="1005"
     inkscape:window-x="0"
     inkscape:window-y="24"
     inkscape:window-maximized="1">
    <inkscape:grid
       type="xygrid"
       id="grid2816"
       empspacing="5"
       visible="true"
       enabled="true"
       snapvisiblegridlinesonly="true" />
  </sodipodi:namedview>
  <defs
     id="defs4">
    <marker
       style="overflow:visible;"
       id="Arrow2Mend"
       refX="0.0"
       refY="0.0"
       orient="auto"
       inkscape:stockid="Arrow2Mend">
      <path
         transform="scale(0.6) rotate(180) translate(0,0)"
         d="M 8.7185878,4.0337352 L -2.2072895,0.016013256 L 8.7185884,-4.0017078 C 6.9730900,-1.6296469 6.9831476,1.6157441 8.7185878,4.0337352 z "
         style="font-size:12.0;fill-rule:evenodd;stroke-width:0.62500000;stroke-linejoin:round;"
         id="path5061" />
    </marker>
    <marker
       inkscape:stockid="Arrow1Mend"
       orient="auto"
       refY="0.0"
       refX="0.0"
       id="Arrow1Mend"
       style="overflow:visible;">
      <path
         id="path3988"
         d="M 0.0,0.0 L 5.0,-5.0 L -12.5,0.0 L 5.0,5.0 L 0.0,0.0 z "
         style="fill-rule:evenodd;stroke:#000000;stroke-width:1.0pt;marker-start:none;"
         transform="scale(0.4) rotate(180) translate(10,0)" />
    </marker>
    <marker
       inkscape:stockid="Arrow1Lend"
       orient="auto"
       refY="0.0"
       refX="0.0"
       id="Arrow1Lend"
       style="overflow:visible;">
      <path
         id="path3982"
         d="M 0.0,0.0 L 5.0,-5.0 L -12.5,0.0 L 5.0,5.0 L 0.0,0.0 z "
         style="fill-rule:evenodd;stroke:#000000;stroke-width:1.0pt;marker-start:none;"
         transform="scale(0.8) rotate(180) translate(12.5,0)" />
    </marker>
    <inkscape:perspective
       sodipodi:type="inkscape:persp3d"
       inkscape:vp_x="0 : 526.18109 : 1"
       inkscape:vp_y="0 : 1000 : 0"
       inkscape:vp_z="744.09448 : 526.18109 : 1"
       inkscape:persp3d-origin="372.04724 : 350.78739 : 1"
       id="perspective10" />
    <inkscape:perspective
       id="perspective3600"
       inkscape:persp3d-origin="0.5 : 0.33333333 : 1"
       inkscape:vp_z="1 : 0.5 : 1"
       inkscape:vp_y="0 : 1000 : 0"
       inkscape:vp_x="0 : 0.5 : 1"
       sodipodi:type="inkscape:persp3d" />
    <inkscape:perspective
       id="perspective3638"
       inkscape:persp3d-origin="0.5 : 0.33333333 : 1"
       inkscape:vp_z="1 : 0.5 : 1"
       inkscape:vp_y="0 : 1000 : 0"
       inkscape:vp_x="0 : 0.5 : 1"
       sodipodi:type="inkscape:persp3d" />
    <inkscape:perspective
       id="perspective3638-1"
       inkscape:persp3d-origin="0.5 : 0.33333333 : 1"
       inkscape:vp_z="1 : 0.5 : 1"
       inkscape:vp_y="0 : 1000 : 0"
       inkscape:vp_x="0 : 0.5 : 1"
       sodipodi:type="inkscape:persp3d" />
    <inkscape:perspective
       id="perspective3715"
       inkscape:persp3d-origin="0.5 : 0.33333333 : 1"
       inkscape:vp_z="1 : 0.5 : 1"
       inkscape:vp_y="0 : 1000 : 0"
       inkscape:vp_x="0 : 0.5 : 1"
       sodipodi:type="inkscape:persp3d" />
    <inkscape:perspective
       id="perspective3741"
       inkscape:persp3d-origin="0.5 : 0.33333333 : 1"
       inkscape:vp_z="1 : 0.5 : 1"
       inkscape:vp_y="0 : 1000 : 0"
       inkscape:vp_x="0 : 0.5 : 1"
       sodipodi:type="inkscape:persp3d" />
    <inkscape:perspective
       id="perspective3773"
       inkscape:persp3d-origin="0.5 : 0.33333333 : 1"
       inkscape:vp_z="1 : 0.5 : 1"
       inkscape:vp_y="0 : 1000 : 0"
       inkscape:vp_x="0 : 0.5 : 1"
       sodipodi:type="inkscape:persp3d" />
    <inkscape:perspective
       id="perspective3803"
       inkscape:persp3d-origin="0.5 : 0.33333333 : 1"
       inkscape:vp_z="1 : 0.5 : 1"
       inkscape:vp_y="0 : 1000 : 0"
       inkscape:vp_x="0 : 0.5 : 1"
       sodipodi:type="inkscape:persp3d" />
    <inkscape:perspective
       id="perspective3854"
       inkscape:persp3d-origin="0.5 : 0.33333333 : 1"
       inkscape:vp_z="1 : 0.5 : 1"
       inkscape:vp_y="0 : 1000 : 0"
       inkscape:vp_x="0 : 0.5 : 1"
       sodipodi:type="inkscape:persp3d" />
    <inkscape:perspective
       id="perspective3882"
       inkscape:persp3d-origin="0.5 : 0.33333333 : 1"
       inkscape:vp_z="1 : 0.5 : 1"
       inkscape:vp_y="0 : 1000 : 0"
       inkscape:vp_x="0 : 0.5 : 1"
       sodipodi:type="inkscape:persp3d" />
    <inkscape:perspective
       id="perspective3928"
       inkscape:persp3d-origin="0.5 : 0.33333333 : 1"
       inkscape:vp_z="1 : 0.5 : 1"
       inkscape:vp_y="0 : 1000 : 0"
       inkscape:vp_x="0 : 0.5 : 1"
       sodipodi:type="inkscape:persp3d" />
    <inkscape:perspective
       id="perspective4620"
       inkscape:persp3d-origin="0.5 : 0.33333333 : 1"
       inkscape:vp_z="1 : 0.5 : 1"
       inkscape:vp_y="0 : 1000 : 0"
       inkscape:vp_x="0 : 0.5 : 1"
       sodipodi:type="inkscape:persp3d" />
    <marker
       inkscape:stockid="Arrow1Mend"
       orient="auto"
       refY="0"
       refX="0"
       id="Arrow1Mend-6"
       style="overflow:visible">
      <path
         id="path3988-5"
         d="M 0,0 5,-5 -12.5,0 5,5 0,0 z"
         style="fill-rule:evenodd;stroke:#000000;stroke-width:1pt;marker-start:none"
         transform="matrix(-0.4,0,0,-0.4,-4,0)" />
    </marker>
    <inkscape:perspective
       id="perspective4684"
       inkscape:persp3d-origin="0.5 : 0.33333333 : 1"
       inkscape:vp_z="1 : 0.5 : 1"
       inkscape:vp_y="0 : 1000 : 0"
       inkscape:vp_x="0 : 0.5 : 1"
       sodipodi:type="inkscape:persp3d" />
    <inkscape:perspective
       id="perspective4708"
       inkscape:persp3d-origin="0.5 : 0.33333333 : 1"
       inkscape:vp_z="1 : 0.5 : 1"
       inkscape:vp_y="0 : 1000 : 0"
       inkscape:vp_x="0 : 0.5 : 1"
       sodipodi:type="inkscape:persp3d" />
    <inkscape:perspective
       id="perspective4920"
       inkscape:persp3d-origin="0.5 : 0.33333333 : 1"
       inkscape:vp_z="1 : 0.5 : 1"
       inkscape:vp_y="0 : 1000 : 0"
       inkscape:vp_x="0 : 0.5 : 1"
       sodipodi:type="inkscape:persp3d" />
    <marker
       inkscape:stockid="Arrow1Mend"
       orient="auto"
       refY="0"
       refX="0"
       id="Arrow1Mend-4"
       style="overflow:visible">
      <path
         id="path3988-53"
         d="M 0,0 5,-5 -12.5,0 5,5 0,0 z"
         style="fill-rule:evenodd;stroke:#000000;stroke-width:1pt;marker-start:none"
         transform="matrix(-0.4,0,0,-0.4,-4,0)" />
    </marker>
    <inkscape:perspective
       id="perspective4948"
       inkscape:persp3d-origin="0.5 : 0.33333333 : 1"
       inkscape:vp_z="1 : 0.5 : 1"
       inkscape:vp_y="0 : 1000 : 0"
       inkscape:vp_x="0 : 0.5 : 1"
       sodipodi:type="inkscape:persp3d" />
    <marker
       inkscape:stockid="Arrow1Mend"
       orient="auto"
       refY="0"
       refX="0"
       id="Arrow1Mend-0"
       style="overflow:visible">
      <path
         id="path3988-1"
         d="M 0,0 5,-5 -12.5,0 5,5 0,0 z"
         style="fill-rule:evenodd;stroke:#000000;stroke-width:1pt;marker-start:none"
         transform="matrix(-0.4,0,0,-0.4,-4,0)" />
    </marker>
    <inkscape:perspective
       id="perspective4976"
       inkscape:persp3d-origin="0.5 : 0.33333333 : 1"
       inkscape:vp_z="1 : 0.5 : 1"
       inkscape:vp_y="0 : 1000 : 0"
       inkscape:vp_x="0 : 0.5 : 1"
       sodipodi:type="inkscape:persp3d" />
    <marker
       inkscape:stockid="Arrow1Mend"
       orient="auto"
       refY="0"
       refX="0"
       id="Arrow1Mend-47"
       style="overflow:visible">
      <path
         id="path3988-8"
         d="M 0,0 5,-5 -12.5,0 5,5 0,0 z"
         style="fill-rule:evenodd;stroke:#000000;stroke-width:1pt;marker-start:none"
         transform="matrix(-0.4,0,0,-0.4,-4,0)" />
    </marker>
    <inkscape:perspective
       id="perspective5004"
       inkscape:persp3d-origin="0.5 : 0.33333333 : 1"
       inkscape:vp_z="1 : 0.5 : 1"
       inkscape:vp_y="0 : 1000 : 0"
       inkscape:vp_x="0 : 0.5 : 1"
       sodipodi:type="inkscape:persp3d" />
    <marker
       inkscape:stockid="Arrow1Mend"
       orient="auto"
       refY="0"
       refX="0"
       id="Arrow1Mend-8"
       style="overflow:visible">
      <path
         id="path3988-6"
         d="M 0,0 5,-5 -12.5,0 5,5 0,0 z"
         style="fill-rule:evenodd;stroke:#000000;stroke-width:1pt;marker-start:none"
         transform="matrix(-0.4,0,0,-0.4,-4,0)" />
    </marker>
    <inkscape:perspective
       sodipodi:type="inkscape:persp3d"
       inkscape:vp_x="0 : 0.5 : 1"
       inkscape:vp_y="0 : 1000 : 0"
       inkscape:vp_z="1 : 0.5 : 1"
       inkscape:persp3d-origin="0.5 : 0.33333333 : 1"
       id="perspective6595" />
  </defs>
  <metadata
     id="metadata7">
    <rdf:RDF>
      <cc:Work
         rdf:about="">
        <dc:format>image/svg+xml</dc:format>
        <dc:type
           rdf:resource="http://purl.org/dc/dcmitype/StillImage" />
        <dc:title />
      </cc:Work>
    </rdf:RDF>
  </metadata>
  <g
     inkscape:label="Layer 1"
     inkscape:groupmode="layer"
     id="layer1">
    <rect
       style="opacity:0.98999999;fill:#0b0b4e;fill-opacity:0.12444446;fill-rule:nonzero;stroke:#000000;stroke-width:3.5;stroke-linecap:round;stroke-linejoin:round;stroke-miterlimit:4;stroke-opacity:1;stroke-dasharray:none;stroke-dashoffset:0"
       id="rect2818"
       width="710"
       height="300"
       x="10"
       y="12.362183" />
    <rect
       style="opacity:0.98999999;fill:#0b0b4e;fill-opacity:0.12444446;fill-rule:nonzero;stroke:#000000;stroke-width:3.5;stroke-linecap:round;stroke-linejoin:round;stroke-miterlimit:4;stroke-opacity:1;stroke-dasharray:none;stroke-dashoffset:0"
       id="rect2818-9"
       width="710"
       height="300"
       x="10"
       y="322.36218" />
    <text
       xml:space="preserve"
       style="font-size:15px;font-style:normal;font-weight:normal;fill:#000000;fill-opacity:1;stroke:none;font-family:Bitstream Vera Sans"
       x="30"
       y="602.36218"
       id="text3618"><tspan
         sodipodi:role="line"
         id="tspan3620"
         x="30"
         y="602.36218"
         style="font-weight:bold">Motor control computer</tspan></text>
    <rect
       style="opacity:0.98999999;fill:#0b0b4e;fill-opacity:0.12444446;fill-rule:nonzero;stroke:#000000;stroke-width:3.5;stroke-linecap:round;stroke-linejoin:round;stroke-miterlimit:4;stroke-opacity:1;stroke-dasharray:none;stroke-dashoffset:0"
       id="rect3622"
       width="160.71428"
       height="80.714287"
       x="20.532997"
       y="47.241852" />
    <text
       xml:space="preserve"
       style="font-size:15px;font-style:normal;font-weight:normal;text-align:center;text-anchor:middle;fill:#000000;fill-opacity:1;stroke:none;font-family:Bitstream Vera Sans"
       x="101.23071"
       y="82.362183"
       id="text3624"><tspan
         sodipodi:role="line"
         id="tspan3626"
         x="101.23071"
         y="82.362183">Left Camera</tspan><tspan
         sodipodi:role="line"
         x="101.23071"
         y="101.11218"
         id="tspan3628">Acquisition Node</tspan></text>
    <rect
       style="opacity:0.98999999;fill:#0b0b4e;fill-opacity:0.12444446;fill-rule:nonzero;stroke:#000000;stroke-width:3.5;stroke-linecap:round;stroke-linejoin:round;stroke-miterlimit:4;stroke-opacity:1;stroke-dasharray:none;stroke-dashoffset:0"
       id="rect3622-0"
       width="160.71428"
       height="80.714287"
       x="20"
       y="143.64789" />
    <text
       xml:space="preserve"
       style="font-size:15px;font-style:normal;font-weight:normal;text-align:center;text-anchor:middle;fill:#000000;fill-opacity:1;stroke:none;font-family:Bitstream Vera Sans"
       x="100.69772"
       y="178.76822"
       id="text3624-7"><tspan
         sodipodi:role="line"
         id="tspan3626-6"
         x="100.69772"
         y="178.76822">Right Camera</tspan><tspan
         sodipodi:role="line"
         x="100.69772"
         y="197.51822"
         id="tspan3628-0">Acquisition Node</tspan></text>
    <rect
       style="opacity:0.98999999;fill:#0b0b4e;fill-opacity:0.12444446;fill-rule:nonzero;stroke:#000000;stroke-width:3.1293025;stroke-linecap:round;stroke-linejoin:round;stroke-miterlimit:4;stroke-opacity:1;stroke-dasharray:none;stroke-dashoffset:0"
       id="rect3622-2"
       width="400"
       height="170"
       x="280"
       y="22.362183" />
    <text
       xml:space="preserve"
       style="font-size:15px;font-style:normal;font-weight:normal;fill:#000000;fill-opacity:1;stroke:none;font-family:Bitstream Vera Sans"
       x="415.40771"
       y="52.362183"
       id="text3729"><tspan
         sodipodi:role="line"
         id="tspan3731"
         x="415.40771"
         y="52.362183">Vision Processing</tspan></text>
    <rect
       style="opacity:0.98999999;fill:#0b0b4e;fill-opacity:0.12444446;fill-rule:nonzero;stroke:#000000;stroke-width:3.5;stroke-linecap:round;stroke-linejoin:round;stroke-miterlimit:4;stroke-opacity:1;stroke-dasharray:none;stroke-dashoffset:0"
       id="rect3622-9"
       width="160.71428"
       height="80.714287"
       x="299.28571"
       y="92.362183" />
    <text
       xml:space="preserve"
       style="font-size:15px;font-style:normal;font-weight:normal;text-align:center;text-anchor:middle;fill:#000000;fill-opacity:1;stroke:none;font-family:Bitstream Vera Sans"
       x="379.86624"
       y="119.33066"
       id="text3755"><tspan
         sodipodi:role="line"
         x="379.86624"
         y="119.33066"
         id="tspan3759">Images</tspan><tspan
         sodipodi:role="line"
         x="379.86624"
         y="138.08066"
         id="tspan8523">Color Conversion</tspan><tspan
         sodipodi:role="line"
         x="379.86624"
         y="156.83066"
         id="tspan3763">and Rectification</tspan></text>
    <rect
       style="opacity:0.98999999;fill:#0b0b4e;fill-opacity:0.12444446;fill-rule:nonzero;stroke:#000000;stroke-width:3.5;stroke-linecap:round;stroke-linejoin:round;stroke-miterlimit:4;stroke-opacity:1;stroke-dasharray:none;stroke-dashoffset:0"
       id="rect3622-9-8"
       width="160.71428"
       height="80.714287"
       x="489.28571"
       y="92.362183" />
    <text
       xml:space="preserve"
       style="font-size:15px;font-style:normal;font-weight:normal;fill:#000000;fill-opacity:1;stroke:none;font-family:Bitstream Vera Sans"
       x="522.84839"
       y="128.93637"
       id="text3787"><tspan
         sodipodi:role="line"
         x="522.84839"
         y="128.93637"
         id="tspan3791">Vision based</tspan><tspan
         sodipodi:role="line"
         x="522.84839"
         y="147.68637"
         id="tspan2950">localization</tspan></text>
    <rect
       style="opacity:0.98999999;fill:#0b0b4e;fill-opacity:0.12444446;fill-rule:nonzero;stroke:#000000;stroke-width:3.5;stroke-linecap:round;stroke-linejoin:round;stroke-miterlimit:4;stroke-opacity:1;stroke-dasharray:none;stroke-dashoffset:0"
       id="rect3622-9-1"
       width="160.71428"
       height="80.714287"
       x="298.34912"
       y="215.78799" />
    <text
       xml:space="preserve"
       style="font-size:15px;font-style:normal;font-weight:normal;text-align:center;text-anchor:middle;fill:#000000;fill-opacity:1;stroke:none;font-family:Bitstream Vera Sans"
       x="378.92969"
       y="252.36218"
       id="text3755-9"><tspan
         sodipodi:role="line"
         x="378.92969"
         y="252.36218"
         id="tspan3763-0">Execution Error</tspan><tspan
         sodipodi:role="line"
         x="378.92969"
         y="271.11218"
         id="tspan3828">Estimation</tspan></text>
    <rect
       style="opacity:0.98999999;fill:#0b0b4e;fill-opacity:0.12444446;fill-rule:nonzero;stroke:#000000;stroke-width:3.39420509;stroke-linecap:round;stroke-linejoin:round;stroke-miterlimit:4;stroke-opacity:1;stroke-dasharray:none;stroke-dashoffset:0"
       id="rect3622-2-7"
       width="400"
       height="200"
       x="280"
       y="332.36218" />
    <text
       xml:space="preserve"
       style="font-size:15px;font-style:normal;font-weight:normal;fill:#000000;fill-opacity:1;stroke:none;font-family:Bitstream Vera Sans"
       x="415.40771"
       y="520.36218"
       id="text3729-8"><tspan
         sodipodi:role="line"
         id="tspan3731-0"
         x="415.40771"
         y="520.36218">Robot Controller (Real-Time)</tspan></text>
    <rect
       style="opacity:0.98999999;fill:#0b0b4e;fill-opacity:0.12444446;fill-rule:nonzero;stroke:#000000;stroke-width:3.5;stroke-linecap:round;stroke-linejoin:round;stroke-miterlimit:4;stroke-opacity:1;stroke-dasharray:none;stroke-dashoffset:0"
       id="rect3622-9-5"
       width="160.71428"
       height="80.714287"
       x="299.28571"
       y="402.36218" />
    <text
       xml:space="preserve"
       style="font-size:15px;font-style:normal;font-weight:normal;text-align:center;text-anchor:middle;fill:#000000;fill-opacity:1;stroke:none;font-family:Bitstream Vera Sans"
       x="379.86627"
       y="438.93637"
       id="text3755-6"><tspan
         sodipodi:role="line"
         x="379.86627"
         y="438.93637"
         id="tspan3763-6">Trajectory</tspan><tspan
         sodipodi:role="line"
         x="379.86627"
         y="457.68637"
         id="tspan3916">Reshaping</tspan></text>
    <rect
       style="opacity:0.98999999;fill:#0b0b4e;fill-opacity:0.12444446;fill-rule:nonzero;stroke:#000000;stroke-width:3.5;stroke-linecap:round;stroke-linejoin:round;stroke-miterlimit:4;stroke-opacity:1;stroke-dasharray:none;stroke-dashoffset:0"
       id="rect3622-9-8-8"
       width="160.71428"
       height="80.714287"
       x="489.28571"
       y="402.36218" />
    <text
       xml:space="preserve"
       style="font-size:15px;font-style:normal;font-weight:normal;text-align:center;text-anchor:middle;fill:#000000;fill-opacity:1;stroke:none;font-family:Bitstream Vera Sans"
       x="569.55127"
       y="438.93637"
       id="text3787-6"><tspan
         sodipodi:role="line"
         x="569.55127"
         y="438.93637"
         id="tspan3791-3">Tasks</tspan><tspan
         sodipodi:role="line"
         x="569.55127"
         y="457.68637"
         id="tspan3918">Resolution</tspan></text>
    <rect
       style="opacity:0.98999999;fill:#0b0b4e;fill-opacity:0.12444446;fill-rule:nonzero;stroke:#000000;stroke-width:3.5;stroke-linecap:round;stroke-linejoin:round;stroke-miterlimit:4;stroke-opacity:1;stroke-dasharray:none;stroke-dashoffset:0"
       id="rect3622-9-5-1"
       width="160.71428"
       height="80.714287"
       x="26.47998"
       y="405.78799" />
    <text
       xml:space="preserve"
       style="font-size:15px;font-style:normal;font-weight:normal;text-align:center;text-anchor:middle;fill:#000000;fill-opacity:1;stroke:none;font-family:Bitstream Vera Sans"
       x="107.06055"
       y="442.36218"
       id="text3755-6-6"><tspan
         sodipodi:role="line"
         x="107.06055"
         y="442.36218"
         id="tspan3763-6-1">Trajectory Planner</tspan><tspan
         sodipodi:role="line"
         x="107.06055"
         y="461.11218"
         id="tspan3916-6">(Off-Line)</tspan></text>
    <path
       style="fill:none;stroke:#000000;stroke-width:3.35985255;stroke-linecap:butt;stroke-linejoin:miter;stroke-miterlimit:4;stroke-opacity:1;stroke-dasharray:none;marker-end:url(#Arrow1Mend)"
       d="m 188,446.14514 104,0"
       id="path3974" />
    <path
       style="fill:none;stroke:#000000;stroke-width:3.59183311;stroke-linecap:butt;stroke-linejoin:miter;stroke-miterlimit:4;stroke-opacity:1;stroke-dasharray:none;marker-end:url(#Arrow1Mend)"
       d="m 651.14286,442.71933 118.85714,0"
       id="path3974-2" />
    <path
       style="fill:none;stroke:#000000;stroke-width:3.5;stroke-linecap:butt;stroke-linejoin:miter;stroke-miterlimit:4;stroke-opacity:1;stroke-dasharray:none;marker-end:url(#Arrow1Mend)"
       d="m 181.14286,112.36218 112.85714,0"
       id="path3974-5" />
    <path
       style="fill:none;stroke:#000000;stroke-width:3.5;stroke-linecap:butt;stroke-linejoin:miter;stroke-miterlimit:4;stroke-opacity:1;stroke-dasharray:none;marker-end:url(#Arrow1Mend)"
       d="m 181.14286,156.36218 112.85714,0"
       id="path3974-5-4" />
    <path
       style="fill:none;stroke:#000000;stroke-width:2.32963824;stroke-linecap:butt;stroke-linejoin:miter;stroke-miterlimit:4;stroke-opacity:1;stroke-dasharray:none;marker-end:url(#Arrow1Mend)"
       d="m 450,132.36218 50,0"
       id="path3974-5-5" />
    <path
       style="fill:none;stroke:#000000;stroke-width:2.32963824;stroke-linecap:butt;stroke-linejoin:miter;stroke-miterlimit:4;stroke-opacity:1;stroke-dasharray:none;marker-end:url(#Arrow1Mend)"
       d="m 448,448.36218 50,0"
       id="path3974-5-5-0" />
    <g
       id="g3270" />
    <g
       transform="matrix(0.46219932,0,0,0.46219932,592.89034,259.77191)"
       id="g4085">
      <g
         style="font-style:normal;font-variant:normal;font-weight:normal;font-stretch:normal;letter-spacing:normal;word-spacing:normal;text-anchor:start;fill:none;stroke:#000000;stroke-linecap:butt;stroke-linejoin:miter;stroke-miterlimit:10.43299961;stroke-opacity:1;stroke-dasharray:none;stroke-dashoffset:0"
         id="content"
         transform="matrix(1.0629921,0,0,-1.0629921,-186.02362,789.27165)"
         xml:space="preserve"
         stroke-miterlimit="10.433"
         font-style="normal"
         font-variant="normal"
         font-weight="normal"
         font-stretch="normal"
         font-size-adjust="none"
         letter-spacing="normal"
         word-spacing="normal"><path
           style="fill:#000000;stroke-width:0"
           d="m 474.8,436.73 0,0.2 -0.02,0.2 -0.02,0.19 -0.03,0.2 -0.05,0.18 -0.05,0.19 -0.06,0.18 -0.07,0.17 -0.08,0.18 -0.08,0.16 -0.1,0.17 -0.1,0.15 -0.11,0.16 -0.11,0.14 -0.13,0.15 -0.12,0.13 -0.14,0.13 -0.14,0.12 -0.15,0.12 -0.15,0.11 -0.16,0.1 -0.16,0.09 -0.17,0.09 -0.17,0.07 -0.17,0.07 -0.18,0.07 -0.19,0.05 -0.19,0.04 -0.19,0.04 -0.19,0.02 -0.2,0.02 -0.2,0 c -2.14,0 -3.88,-1.74 -3.88,-3.89 0,-2.14 1.74,-3.88 3.88,-3.88 2.14,0 3.88,1.74 3.88,3.88 z"
           id="path4088" /><path
           style="fill:#000000;stroke-width:0"
           d="m 477.82,424.48 -0.17,0.23 -0.17,0.22 -0.18,0.21 -0.18,0.21 -0.19,0.2 -0.2,0.2 -0.2,0.19 -0.2,0.18 -0.21,0.18 -0.22,0.17 -0.22,0.17 -0.22,0.16 -0.23,0.15 -0.23,0.14 -0.24,0.14 -0.24,0.13 -0.24,0.13 -0.25,0.11 -0.25,0.11 -0.25,0.1 -0.26,0.1 -0.26,0.08 -0.26,0.08 -0.26,0.07 -0.27,0.07 -0.27,0.05 -0.27,0.05 -0.27,0.04 -0.28,0.03 -0.28,0.02 -0.27,0.01 -0.28,0 c -7.28,0 -12.41,-4.43 -12.41,-11.35 0,-7.02 5.04,-11.36 11.96,-11.36 l 0.5,1.8 c -3.09,0 -6.08,2.88 -6.08,9.51 0,7.07 3.69,9.41 6.68,9.41 3.78,0 6.17,-3.93 6.17,-6.42 v -6.93 c 0,-0.89 0,-1.04 -0.74,-2.09 -2,-2.94 -4.54,-3.48 -6.03,-3.48 l -0.5,-1.8 c 2.44,0 4.68,0.7 6.97,2.69 v -9.71 h -3.43 v -2.34 h 12.55 v 2.34 h -3.44 v 29.73 h -2.04 z"
           id="path4090" /></g>    </g>
    <path
       id="path4213"
       d="m 570.03347,172.67468 -0.78125,71.6875"
       style="fill:none;stroke:#000000;stroke-width:3.16800451;stroke-linecap:butt;stroke-linejoin:miter;stroke-miterlimit:4;stroke-opacity:1;stroke-dasharray:none" />
    <path
       id="path5029"
       d="m 568.75,243.75451 -108.59375,0.78125"
       style="fill:none;stroke:#000000;stroke-width:3.5;stroke-linecap:butt;stroke-linejoin:miter;stroke-miterlimit:4;stroke-opacity:1;stroke-dasharray:none;marker-end:url(#Arrow2Mend)" />
    <g
       transform="matrix(0.47144633,0,0,0.46383184,97.273622,124.39326)"
       id="g6459">
      <path
         id="path6612"
         d="m 128.80868,610.06791 0,-318.16983"
         style="fill:none;stroke:#000000;stroke-width:7.42396259;stroke-linecap:butt;stroke-linejoin:miter;stroke-miterlimit:4;stroke-opacity:1;stroke-dasharray:none" />
      <path
         id="path6614"
         d="m 128.80868,296.14034 291.9871,-1.32571"
         style="fill:none;stroke:#000000;stroke-width:7.42396259;stroke-linecap:butt;stroke-linejoin:miter;stroke-miterlimit:4;stroke-opacity:1;stroke-dasharray:none;marker-mid:none;marker-end:url(#Arrow1Mend-8)" />
    </g>
    <text
       xml:space="preserve"
       style="font-size:15px;font-style:normal;font-weight:normal;fill:#000000;fill-opacity:1;stroke:none;font-family:Bitstream Vera Sans"
       x="22"
       y="34.362183"
       id="text3614"><tspan
         sodipodi:role="line"
         id="tspan3616"
         x="22"
         y="34.362183"
         style="font-weight:bold">Vision processing computer</tspan></text>
    <path
       id="path7012"
       d="m 375,295.33093 0,107.03125"
       style="fill:none;stroke:#000000;stroke-width:3.50000000000000000;stroke-linecap:butt;stroke-linejoin:miter;stroke-opacity:1;stroke-miterlimit:4;stroke-dasharray:none;marker-end:url(#Arrow1Mend-8)" />
    <g
       id="g8084"
       transform="matrix(0.58163077,0,0,0.58163077,47.28199,-110.53534)">
      <g
         id="g8086"
         transform="matrix(1.0629921,0,0,-1.0629921,-186.02362,789.27165)"
         xml:space="preserve"
         stroke-miterlimit="10.433"
         font-style="normal"
         font-variant="normal"
         font-weight="normal"
         font-stretch="normal"
         font-size-adjust="none"
         letter-spacing="normal"
         word-spacing="normal"
         style="font-style:normal;font-variant:normal;font-weight:normal;font-stretch:normal;letter-spacing:normal;word-spacing:normal;text-anchor:start;fill:none;stroke:#000000;stroke-linecap:butt;stroke-linejoin:miter;stroke-miterlimit:10.43299961;stroke-opacity:1;stroke-dasharray:none;stroke-dashoffset:0"><polygon
           points="463.32,408.34 457.64,408.34 457.64,406 476.07,406 476.07,408.34 470.39,408.34 470.39,437.83 476.07,437.83 476.07,440.17 457.64,440.17 457.64,437.83 463.32,437.83 "
           id="polygon8088"
           style="fill:#000000;stroke-width:0" /><path
           d="m 484.18,423.2 -5.23,-0.38 v -1.26 c 2.34,0 2.62,-0.24 2.62,-1.95 v -17.86 c 0,-1.5 -0.35,-1.5 -2.62,-1.5 V 399 h 7.85 v 1.25 c -2.27,0 -2.62,0 -2.62,1.5 z"
           id="path8090"
           style="fill:#000000;stroke-width:0" /><path
           d="m 504.34,406.95 0.07,0 0.07,0 0.06,0 0.06,0 0.05,0 0.06,0 0.05,0.01 0.04,0 0.05,0.01 0.04,0 0.04,0.01 0.04,0.01 0.04,0.01 0.03,0.01 0.04,0.02 0.03,0.02 0.02,0.01 0.03,0.03 0.02,0.02 0.02,0.03 0.02,0.03 0.02,0.03 0.02,0.03 0,0.02 0.01,0.02 0.01,0.02 0,0.03 0.01,0.02 0,0.02 0.01,0.03 0,0.02 0,0.03 0.01,0.02 0,0.03 0,0.03 0.01,0.03 0,0.03 0,0.04 0,0.03 0,0.03 0,0.04 c 0,3.07 -1.71,6.83 -6.91,6.83 -4.56,0 -8.05,-3.62 -8.05,-7.91 0,-4.43 3.87,-7.99 8.51,-7.99 4.7,0 6.45,3.77 6.45,4.53 0,0.14 -0.07,0.49 -0.59,0.49 -0.46,0 -0.53,-0.21 -0.63,-0.56 -1.08,-2.82 -3.73,-3.34 -4.99,-3.34 -1.64,0 -3.21,0.73 -4.25,2.05 -1.29,1.64 -1.33,3.77 -1.33,5.13 l 0.04,0.91 c 0.38,4.91 3.52,5.71 4.84,5.71 4.29,0 4.43,-4.84 4.47,-5.71 h -9.31 l -0.04,-0.91 z"
           id="path8092"
           style="fill:#000000;stroke-width:0" /><path
           d="m 513.18,412.77 h 4.36 v 1.26 h -4.5 v 3.9 c 0,3.18 1.89,4.64 3.39,4.64 0.31,0 0.66,-0.07 1.01,-0.17 -0.49,-0.28 -0.77,-0.84 -0.77,-1.4 0,-0.94 0.66,-1.6 1.6,-1.6 0.95,0 1.61,0.66 1.61,1.6 0,1.5 -1.5,2.55 -3.42,2.55 -2.75,0 -5.89,-1.96 -5.89,-5.62 v -3.9 h -3 v -1.26 h 3 v -11.02 c 0,-1.5 -0.35,-1.5 -2.62,-1.5 V 399 h 8.51 v 1.25 h -0.7 c -2.58,0 -2.58,0.39 -2.58,1.57 z"
           id="path8094"
           style="fill:#000000;stroke-width:0" /><path
           d="m 526.01,412.77 h 5.44 v 1.26 h -5.44 v 6.42 h -1.19 c -0.03,-3.15 -1.46,-6.59 -4.81,-6.7 v -0.98 h 3.24 v -9.41 c 0,-3.91 2.93,-4.71 4.89,-4.71 2.33,0 3.93,1.99 3.93,4.74 v 1.92 h -1.18 v -1.88 c 0,-2.37 -1.12,-3.66 -2.48,-3.66 -2.4,0 -2.4,2.93 -2.4,3.55 z"
           id="path8096"
           style="fill:#000000;stroke-width:0" /></g>    </g>
    <g
       id="g8364"
       transform="matrix(0.55839993,0,0,0.55839993,40.598367,-16.289129)">
      <g
         word-spacing="normal"
         letter-spacing="normal"
         font-size-adjust="none"
         font-stretch="normal"
         font-weight="normal"
         font-variant="normal"
         font-style="normal"
         stroke-miterlimit="10.433"
         xml:space="preserve"
         transform="matrix(1.0629921,0,0,-1.0629921,-186.02362,789.27165)"
         id="g8366"
         style="font-style:normal;font-variant:normal;font-weight:normal;font-stretch:normal;letter-spacing:normal;word-spacing:normal;text-anchor:start;fill:none;stroke:#000000;stroke-linecap:butt;stroke-linejoin:miter;stroke-miterlimit:10.43299961;stroke-opacity:1;stroke-dasharray:none;stroke-dashoffset:0"><polygon
           id="polygon8368"
           points="457.64,408.34 457.64,406 476.07,406 476.07,408.34 470.39,408.34 470.39,437.83 476.07,437.83 476.07,440.17 457.64,440.17 457.64,437.83 463.32,437.83 463.32,408.34 "
           style="fill:#000000;stroke-width:0" /><path
           id="path8370"
           d="m 483.94,406.95 0,0.28 0.01,0.27 0.02,0.29 0.03,0.28 0.04,0.28 0.05,0.28 0.05,0.28 0.06,0.28 0.07,0.28 0.09,0.27 0.08,0.27 0.1,0.27 0.11,0.26 0.12,0.25 0.13,0.25 0.13,0.23 0.15,0.23 0.16,0.22 0.16,0.21 0.18,0.2 0.18,0.19 0.2,0.18 0.21,0.16 0.22,0.15 0.22,0.13 0.24,0.12 0.25,0.1 0.26,0.08 0.27,0.07 0.28,0.05 0.3,0.03 0.3,0.01 c -0.31,-0.24 -0.59,-0.7 -0.59,-1.26 0,-1.14 0.91,-1.6 1.57,-1.6 0.84,0 1.6,0.56 1.6,1.6 0,1.19 -1.12,2.24 -2.75,2.24 -1.74,0 -3.66,-1.08 -4.71,-3.74 h -0.03 v 3.74 l -4.99,-0.39 v -1.25 c 2.33,0 2.61,-0.24 2.61,-1.95 v -9.04 c 0,-1.5 -0.34,-1.5 -2.61,-1.5 V 399 h 8.5 v 1.25 h -0.69 c -2.58,0 -2.58,0.39 -2.58,1.57 z"
           style="fill:#000000;stroke-width:0" /><path
           id="path8372"
           d="m 500.36,420.52 -0.01,0.09 0,0.09 -0.02,0.1 -0.01,0.09 -0.02,0.09 -0.03,0.09 -0.03,0.09 -0.03,0.09 -0.04,0.09 -0.04,0.08 -0.05,0.09 -0.05,0.08 -0.06,0.08 -0.05,0.07 -0.07,0.08 -0.06,0.07 -0.07,0.06 -0.07,0.07 -0.08,0.06 -0.07,0.06 -0.09,0.05 -0.08,0.05 -0.09,0.05 -0.09,0.04 -0.09,0.04 -0.1,0.03 -0.1,0.03 -0.1,0.03 -0.1,0.02 -0.11,0.01 -0.1,0.01 -0.11,0 c -1.05,0 -1.99,-0.84 -1.99,-1.98 0,-1.26 1.01,-2.03 1.99,-2.03 1.11,0 2.02,0.87 2.02,2.03 z"
           style="fill:#000000;stroke-width:0" /><path
           id="path8374"
           d="m 495.06,413.99 v -1.25 c 2.19,0 2.51,-0.21 2.51,-1.92 v -9.07 c 0,-1.5 -0.35,-1.5 -2.62,-1.5 V 399 h 7.6 v 1.25 c -2.02,0 -2.37,0 -2.37,1.47 v 12.66 z"
           style="fill:#000000;stroke-width:0" /><path
           id="path8376"
           d="m 509.02,405.21 0.05,-0.03 0.06,-0.04 0.06,-0.03 0.06,-0.04 0.07,-0.04 0.07,-0.04 0.08,-0.04 0.08,-0.04 0.09,-0.05 0.09,-0.04 0.09,-0.05 0.1,-0.04 0.1,-0.05 0.11,-0.04 0.11,-0.05 0.12,-0.04 0.12,-0.04 0.12,-0.05 0.13,-0.04 0.14,-0.03 0.14,-0.04 0.14,-0.04 0.15,-0.03 0.15,-0.03 0.15,-0.03 0.16,-0.02 0.17,-0.02 0.17,-0.02 0.17,-0.02 0.18,-0.01 0.18,0 0.19,-0.01 0.03,1.05 c -3.41,0 -3.41,3.35 -3.41,4.08 0,0.56 0,1.95 0.7,2.86 0.48,0.59 1.43,1.22 2.68,1.22 3.42,0 3.42,-3.35 3.42,-4.08 0,-0.55 0,-1.95 -0.7,-2.86 -0.49,-0.59 -1.43,-1.22 -2.69,-1.22 h 0 l -0.03,-1.05 c 3.59,0 6.21,2.41 6.21,5.13 0,1.36 -0.63,2.44 -1.47,3.35 1.57,1.11 2.93,1.15 3.53,1.15 -0.14,-0.14 -0.32,-0.28 -0.32,-0.84 0,-0.7 0.53,-1.11 1.12,-1.11 0.49,0 1.11,0.34 1.11,1.15 0,0.8 -0.66,1.78 -2.05,1.78 -0.53,0 -2.41,-0.11 -4.05,-1.61 -1.05,0.77 -2.51,1.26 -4.05,1.26 -3.58,0 -6.2,-2.41 -6.2,-5.13 0,-1.36 0.7,-2.61 1.67,-3.52 -0.28,-0.32 -1.04,-1.46 -1.04,-2.82 0,-0.46 0.1,-2.1 1.46,-3.11 -1.57,-0.52 -3.38,-1.67 -3.38,-3.48 0,-2.55 3.84,-4.47 8.54,-4.47 v 1.05 c -3.66,0 -6.41,1.64 -6.41,3.45 0,1.22 1.11,2.72 3.35,2.76 h 2.01 c 3.11,0 7.47,0 7.47,-2.76 0,-1.85 -2.76,-3.45 -6.42,-3.45 v -1.05 c 4.43,0 8.55,1.74 8.55,4.54 0,1.04 -0.42,2.92 -2.34,3.97 -2.06,1.08 -4.11,1.08 -7.5,1.08 -0.77,0 -2.02,0 -2.3,0.04 -1.11,0.24 -1.74,1.29 -1.74,2.3 0,0.87 0.24,1.15 0.45,1.43 z"
           style="fill:#000000;stroke-width:0" /><path
           id="path8378"
           d="m 541.96,409.57 -0.01,0.28 -0.01,0.27 -0.02,0.27 -0.03,0.25 -0.05,0.25 -0.05,0.25 -0.06,0.23 -0.07,0.23 -0.08,0.22 -0.08,0.21 -0.1,0.2 -0.11,0.19 -0.12,0.19 -0.14,0.17 -0.14,0.17 -0.15,0.16 -0.16,0.15 -0.18,0.14 -0.18,0.13 -0.2,0.13 -0.21,0.11 -0.22,0.1 -0.23,0.1 -0.24,0.08 -0.26,0.08 -0.27,0.06 -0.28,0.06 -0.29,0.05 -0.3,0.03 -0.32,0.03 -0.33,0.01 -0.34,0.01 c -3.11,0 -4.82,-1.85 -5.58,-3.18 h -0.04 v 12 l -5.23,-0.38 v -1.26 c 2.34,0 2.62,-0.24 2.62,-1.95 v -17.86 c 0,-1.5 -0.35,-1.5 -2.62,-1.5 V 399 h 7.99 v 1.25 c -2.27,0 -2.62,0 -2.62,1.5 v 6.28 c 0,3.66 2.9,5.37 5.2,5.37 2.44,0 2.75,-1.92 2.75,-3.7 v -7.95 c 0,-1.5 -0.35,-1.5 -2.61,-1.5 V 399 h 7.98 v 1.25 c -2.27,0 -2.61,0 -2.61,1.5 z"
           style="fill:#000000;stroke-width:0" /><path
           id="path8380"
           d="m 552.01,412.77 h 5.44 v 1.26 h -5.44 v 6.42 h -1.19 c -0.03,-3.15 -1.46,-6.59 -4.81,-6.7 v -0.98 h 3.24 v -9.41 c 0,-3.91 2.93,-4.71 4.89,-4.71 2.33,0 3.93,1.99 3.93,4.74 v 1.92 h -1.18 v -1.88 c 0,-2.37 -1.12,-3.66 -2.48,-3.66 -2.4,0 -2.4,2.93 -2.4,3.55 z"
           style="fill:#000000;stroke-width:0" /></g>    </g>
    <g
       transform="matrix(0.46090335,0,0,0.51405091,106.63779,57.148882)"
       id="g3917">
      <g
         style="font-style:normal;font-variant:normal;font-weight:normal;font-stretch:normal;letter-spacing:normal;word-spacing:normal;text-anchor:start;fill:none;stroke:#000000;stroke-linecap:butt;stroke-linejoin:miter;stroke-miterlimit:10.43299961;stroke-opacity:1;stroke-dasharray:none;stroke-dashoffset:0"
         id="g3919"
         transform="matrix(1.0629921,0,0,-1.0629921,-186.02362,789.27165)"
         xml:space="preserve"
         stroke-miterlimit="10.433"
         font-style="normal"
         font-variant="normal"
         font-weight="normal"
         font-stretch="normal"
         font-size-adjust="none"
         letter-spacing="normal"
         word-spacing="normal"><path
           style="fill:#000000;stroke-width:0"
           d="m 458.04,418.65 0.1,0.27 0.09,0.25 0.11,0.25 0.11,0.24 0.11,0.23 0.11,0.23 0.12,0.22 0.13,0.21 0.13,0.2 0.13,0.19 0.13,0.19 0.14,0.18 0.28,0.35 0.29,0.31 0.3,0.29 0.31,0.27 0.31,0.25 0.32,0.22 0.31,0.2 0.32,0.18 0.32,0.17 0.31,0.14 0.32,0.13 0.3,0.11 0.3,0.1 0.29,0.08 0.28,0.07 0.26,0.06 0.26,0.05 0.24,0.04 0.22,0.03 0.2,0.03 0.19,0.02 0.16,0.01 0.15,0 0.11,0.01 0.1,0 0.06,0 c 7.52,0 8.07,-8.72 8.07,-12.65 0,-3.04 -0.24,-3.89 -0.6,-4.88 -1.09,-3.64 -2.59,-9.42 -2.59,-10.71 0,-0.55 0.25,-0.9 0.65,-0.9 0.65,0 1.05,1.1 1.6,2.99 1.14,4.18 1.64,7.02 1.84,8.57 0.1,0.65 0.2,1.29 0.4,1.94 1.59,4.93 4.78,12.35 6.77,16.29 0.35,0.6 0.95,1.69 0.95,1.89 0,0.5 -0.5,0.5 -0.6,0.5 -0.15,0 -0.45,0 -0.6,-0.35 -2.59,-4.73 -4.58,-9.71 -6.57,-14.74 -0.05,1.54 -0.1,5.33 -2.05,10.16 -1.19,3.04 -3.18,5.48 -6.62,5.48 -6.23,0 -9.71,-7.57 -9.71,-9.12 0,-0.5 0.44,-0.5 0.94,-0.5 z"
           id="path3921" /><path
           style="fill:#000000;stroke-width:0"
           d="m 488.18,423.2 -5.23,-0.38 v -1.26 c 2.34,0 2.62,-0.24 2.62,-1.95 v -17.86 c 0,-1.5 -0.35,-1.5 -2.62,-1.5 V 399 h 7.85 v 1.25 c -2.27,0 -2.62,0 -2.62,1.5 z"
           id="path3923" /><path
           style="fill:#000000;stroke-width:0"
           d="m 508.55,408.34 0,0.34 0,0.33 -0.01,0.32 -0.01,0.31 -0.01,0.15 -0.02,0.15 -0.01,0.14 -0.02,0.15 -0.03,0.14 -0.02,0.14 -0.03,0.14 -0.04,0.14 -0.04,0.13 -0.04,0.13 -0.05,0.14 -0.06,0.13 -0.06,0.13 -0.07,0.12 -0.07,0.13 -0.08,0.13 -0.09,0.12 -0.1,0.13 -0.1,0.12 -0.11,0.12 -0.12,0.13 -0.13,0.12 -0.14,0.12 -0.14,0.12 c -1.43,1.18 -3.11,1.74 -5.16,1.74 -3.32,0 -5.65,-1.25 -5.65,-3.38 0,-1.12 0.77,-1.71 1.67,-1.71 0.94,0 1.64,0.7 1.64,1.64 0,0.59 -0.28,1.33 -1.22,1.6 1.25,0.87 3.28,0.87 3.49,0.87 1.95,0 4.08,-1.28 4.08,-4.21 v -1.09 -0.9 -3.45 c 0,-3.35 -2.93,-4.29 -4.5,-4.29 -1.78,0 -3.45,1.18 -3.45,2.89 0,1.92 1.67,4.6 7.95,4.85 v 0.9 c -1.92,-0.06 -4.22,-0.17 -6.77,-1.11 -3.14,-1.15 -4.11,-3.07 -4.11,-4.64 0,-3 3.62,-3.87 6.1,-3.87 2.79,0 4.43,1.57 5.16,2.93 0.14,-1.43 1.08,-2.76 2.69,-2.76 0.06,0 3.45,0 3.45,3.32 v 1.91 h -1.19 v -1.88 c 0,-0.35 0,-2.02 -1.29,-2.02 -1.29,0 -1.29,1.64 -1.29,2.09 z"
           id="path3925" /></g>    </g>
    <g
       transform="matrix(0.57008005,0,0,0.61216144,79.99644,212.91665)"
       id="g4217">
      <g
         style="font-style:normal;font-variant:normal;font-weight:normal;font-stretch:normal;letter-spacing:normal;word-spacing:normal;text-anchor:start;fill:none;stroke:#000000;stroke-linecap:butt;stroke-linejoin:miter;stroke-miterlimit:10.43299961;stroke-opacity:1;stroke-dasharray:none;stroke-dashoffset:0"
         word-spacing="normal"
         letter-spacing="normal"
         font-size-adjust="none"
         font-stretch="normal"
         font-weight="normal"
         font-variant="normal"
         font-style="normal"
         stroke-miterlimit="10.433"
         xml:space="preserve"
         transform="matrix(1.0629921,0,0,-1.0629921,-186.02362,789.27165)"
         id="g4219"><path
           style="fill:#000000;stroke-width:0"
           id="path4221"
           d="m 486.48,439.87 h -28.54 v -2.34 h 5.38 v -29.19 h -5.38 V 406 h 19.18 v 2.34 h -6.73 v 29.19 h 5.79 c 7.82,0 8.76,-3.83 9.51,-9.66 h 2.34 z" /></g>    </g>
    <g
       transform="matrix(0.46896355,0,0,0.53558642,323.95312,250.06761)"
       id="g4511">
      <g
         style="font-style:normal;font-variant:normal;font-weight:normal;font-stretch:normal;letter-spacing:normal;word-spacing:normal;text-anchor:start;fill:none;stroke:#000000;stroke-linecap:butt;stroke-linejoin:miter;stroke-miterlimit:10.43299961;stroke-opacity:1;stroke-dasharray:none;stroke-dashoffset:0"
         id="g4513"
         transform="matrix(1.0629921,0,0,-1.0629921,-186.02362,789.27165)"
         xml:space="preserve"
         stroke-miterlimit="10.433"
         font-style="normal"
         font-variant="normal"
         font-weight="normal"
         font-stretch="normal"
         font-size-adjust="none"
         letter-spacing="normal"
         word-spacing="normal"><path
           style="fill:#000000;stroke-width:0"
           d="m 486.48,439.87 h -28.54 v -2.34 h 5.38 v -29.19 h -5.38 V 406 h 19.18 v 2.34 h -6.73 v 29.19 h 5.79 c 7.82,0 8.76,-3.83 9.51,-9.66 h 2.34 z"
           id="path4515" /><path
           style="fill:#000000;stroke-width:0"
           d="m 500.11,440.46 0.03,0.05 0.02,0.05 0.02,0.06 0.03,0.05 0.02,0.04 0.02,0.05 0.01,0.04 0.02,0.05 0.01,0.04 0.02,0.04 0.01,0.04 0.01,0.04 0.02,0.03 0.01,0.04 0.01,0.03 0,0.04 0.01,0.03 0.01,0.03 0,0.03 0.01,0.03 0.01,0.03 0,0.03 0,0.02 0.01,0.03 0,0.05 0,0.05 0.01,0.05 0,0.04 c 0,1.09 -0.98,1.92 -2.06,1.92 -1.33,0 -1.75,-1.08 -1.92,-1.64 l -4.6,-15.1 c -0.04,-0.07 -0.18,-0.52 -0.18,-0.55 0,-0.42 1.08,-0.77 1.37,-0.77 0.24,0 0.27,0.07 0.52,0.59 z"
           id="path4517" /></g>    </g>
    <g
       id="g4808"
       transform="matrix(0.58790975,0,0,0.62428829,215.18141,157.73535)">
      <g
         word-spacing="normal"
         letter-spacing="normal"
         font-size-adjust="none"
         font-stretch="normal"
         font-weight="normal"
         font-variant="normal"
         font-style="normal"
         stroke-miterlimit="10.433"
         xml:space="preserve"
         transform="matrix(1.0629921,0,0,-1.0629921,-186.02362,789.27165)"
         id="g4810"
         style="font-style:normal;font-variant:normal;font-weight:normal;font-stretch:normal;letter-spacing:normal;word-spacing:normal;text-anchor:start;fill:none;stroke:#000000;stroke-linecap:butt;stroke-linejoin:miter;stroke-miterlimit:10.43299961;stroke-opacity:1;stroke-dasharray:none;stroke-dashoffset:0"><path
           id="path4812"
           d="m 469.15,427.77 -0.58,-0.15 -0.57,-0.19 -0.56,-0.21 -0.55,-0.23 -0.54,-0.27 -0.53,-0.28 -0.52,-0.31 -0.5,-0.33 -0.49,-0.35 -0.48,-0.38 -0.46,-0.39 -0.45,-0.41 -0.44,-0.43 -0.41,-0.44 -0.4,-0.46 -0.38,-0.47 -0.36,-0.49 -0.35,-0.5 -0.32,-0.51 -0.31,-0.52 -0.28,-0.53 -0.27,-0.53 -0.24,-0.55 -0.21,-0.55 -0.2,-0.56 -0.17,-0.56 -0.15,-0.56 -0.12,-0.57 -0.09,-0.57 -0.07,-0.57 -0.04,-0.56 -0.02,-0.57 c 0,-4.78 3.19,-8.37 7.87,-8.37 v 1.1 c -2.74,0 -4.78,2.09 -4.78,5.88 0,3.14 1.84,12.5 8.57,14.29 h 0 c 1.24,-2.29 2.74,-4.98 2.74,-8.56 0,-3.29 -1.9,-11.61 -6.53,-11.61 v -1.1 c 5.83,0 9.97,7.82 9.97,14.7 0,4.53 -2,7.02 -3.69,9.26 -1.79,2.25 -4.73,5.98 -4.73,8.17 0,1.1 0.99,2.29 2.74,2.29 1.49,0 2.49,-0.64 3.54,-1.34 0.99,-0.6 1.99,-1.25 2.73,-1.25 1.25,0 2,1.2 2,2 0,1.09 -0.8,1.24 -2.59,1.64 -2.59,0.55 -3.29,0.55 -4.09,0.55 -3.88,0 -5.68,-2.15 -5.68,-5.13 0,-2.69 1.45,-5.48 2.99,-8.52 z"
           style="fill:#000000;stroke-width:0" /><path
           id="path4814"
           d="m 497.23,418.25 5.83,6.48 c 0.65,0.7 0.95,1.05 5.08,1.05 v 2.34 h -9.71 v -2.34 c 0.7,0 1.3,-0.1 1.89,-0.45 -0.2,-0.3 -0.2,-0.4 -0.39,-0.6 l -4.19,-4.68 -4.88,5.73 h 1.99 v 2.34 h -11.51 v -2.34 h 3.54 l 7.77,-9.17 -6.52,-7.32 c -0.85,-0.95 -2.64,-0.95 -5.03,-0.95 V 406 h 9.71 v 2.34 c -0.9,0 -1.85,0.25 -1.85,0.55 0,0.05 0,0.1 0.36,0.5 l 4.83,5.43 5.47,-6.48 h -1.94 V 406 h 11.46 v 2.34 h -3.53 z"
           style="fill:#000000;stroke-width:0" /></g>    </g>
    <path
       style="fill:none;stroke:#000000;stroke-width:3.50000000000000000;stroke-linecap:butt;stroke-linejoin:miter;stroke-opacity:1;stroke-miterlimit:4;stroke-dasharray:none;marker-end:url(#Arrow1Mend-8)"
       d="m 570,402.36218 -0.46875,-131.25 -109.53125,0"
       id="path4960" />
    <g
       transform="matrix(0.68181544,0,0,0.65844493,283.44764,0.62184061)"
       id="g5296">
      <g
         style="font-style:normal;font-variant:normal;font-weight:normal;font-stretch:normal;letter-spacing:normal;word-spacing:normal;text-anchor:start;fill:none;stroke:#000000;stroke-linecap:butt;stroke-linejoin:miter;stroke-miterlimit:10.43299961;stroke-opacity:1;stroke-dasharray:none;stroke-dashoffset:0"
         id="g5298"
         transform="matrix(1.0629921,0,0,-1.0629921,-186.02362,789.27165)"
         xml:space="preserve"
         stroke-miterlimit="10.433"
         font-style="normal"
         font-variant="normal"
         font-weight="normal"
         font-stretch="normal"
         font-size-adjust="none"
         letter-spacing="normal"
         word-spacing="normal"><path
           style="fill:#000000;stroke-width:0"
           d="m 478.66,430.91 0,0.31 -0.01,0.34 -0.01,0.36 -0.02,0.37 -0.03,0.38 -0.04,0.4 -0.05,0.41 -0.06,0.41 -0.06,0.42 -0.08,0.42 -0.09,0.43 -0.1,0.42 -0.11,0.43 -0.13,0.42 -0.13,0.41 -0.16,0.4 -0.17,0.4 -0.18,0.39 -0.2,0.37 -0.22,0.35 -0.23,0.34 -0.25,0.32 -0.27,0.3 -0.29,0.27 -0.31,0.25 -0.17,0.12 -0.16,0.11 -0.18,0.1 -0.17,0.09 -0.19,0.09 -0.19,0.07 -0.19,0.07 -0.2,0.06 -0.21,0.06 -0.21,0.04 -0.21,0.03 -0.23,0.03 -0.23,0.01 -0.23,0.01 -0.05,-1.1 c 2.44,0 2.74,-3.18 2.74,-6.02 0,-2.45 -0.4,-4.99 -1.59,-9.92 h -10.42 c 0.85,3.19 1.84,7.17 3.84,10.71 1.34,2.44 3.18,5.23 5.43,5.23 l 0.05,1.1 c -6.93,0 -14.6,-14.05 -14.6,-25.46 0,-4.68 1.45,-10.21 5.98,-10.21 v 1.1 c -1.64,0 -2.69,1.44 -2.69,6.07 0,2.1 0.3,4.99 1.59,9.87 h 10.37 c -0.55,-2.29 -1.6,-6.53 -3.49,-10.11 -1.74,-3.39 -3.64,-5.83 -5.78,-5.83 v -1.1 c 7.02,0 14.59,14.3 14.59,25.46 z"
           id="path5300" /></g>    </g>
    <g
       id="g5578"
       transform="matrix(0.61227422,0,0,0.73547606,305.62699,31.732468)">
      <g
         word-spacing="normal"
         letter-spacing="normal"
         font-size-adjust="none"
         font-stretch="normal"
         font-weight="normal"
         font-variant="normal"
         font-style="normal"
         stroke-miterlimit="10.433"
         xml:space="preserve"
         transform="matrix(1.0629921,0,0,-1.0629921,-186.02362,789.27165)"
         id="g5580"
         style="font-style:normal;font-variant:normal;font-weight:normal;font-stretch:normal;letter-spacing:normal;word-spacing:normal;text-anchor:start;fill:none;stroke:#000000;stroke-linecap:butt;stroke-linejoin:miter;stroke-miterlimit:10.43299961;stroke-opacity:1;stroke-dasharray:none;stroke-dashoffset:0"><path
           id="path5582"
           d="m 477.82,424.48 -0.17,0.23 -0.17,0.22 -0.18,0.21 -0.18,0.21 -0.19,0.2 -0.2,0.2 -0.2,0.19 -0.2,0.18 -0.21,0.18 -0.22,0.17 -0.22,0.17 -0.22,0.16 -0.23,0.15 -0.23,0.14 -0.24,0.14 -0.24,0.13 -0.24,0.13 -0.25,0.11 -0.25,0.11 -0.25,0.1 -0.26,0.1 -0.26,0.08 -0.26,0.08 -0.26,0.07 -0.27,0.07 -0.27,0.05 -0.27,0.05 -0.27,0.04 -0.28,0.03 -0.28,0.02 -0.27,0.01 -0.28,0 c -7.28,0 -12.41,-4.43 -12.41,-11.35 0,-7.02 5.04,-11.36 11.96,-11.36 l 0.5,1.8 c -3.09,0 -6.08,2.88 -6.08,9.51 0,7.07 3.69,9.41 6.68,9.41 3.78,0 6.17,-3.93 6.17,-6.42 v -6.93 c 0,-0.89 0,-1.04 -0.74,-2.09 -2,-2.94 -4.54,-3.48 -6.03,-3.48 l -0.5,-1.8 c 2.44,0 4.68,0.7 6.97,2.69 v -9.71 h -3.43 v -2.34 h 12.55 v 2.34 h -3.44 v 29.73 h -2.04 z"
           style="fill:#000000;stroke-width:0" /></g>    </g>
  </g>
</svg>
